<svg width="1186" height="69" viewBox="0 0 1186 69" fill="none" xmlns="http://www.w3.org/2000/svg">
<path d="M336.711 0.467758H311.973C313.691 21.364 307.855 39.4843 293.554 52.137C286.599 58.7242 278.815 63.8696 270.488 67.7421H328.023C332.8 57.3285 336.451 46.2478 339.142 35.1133C341.581 23.5648 340.967 11.4105 336.711 0.467758Z" fill="#945745"/>
<path d="M367.109 2.29282C367.07 1.68702 367.032 1.07356 366.978 0.467758H336.711C345.745 22.6983 342.271 45.9104 333.552 67.7421H351.036C362.255 47.4747 368.681 25.2902 367.109 2.29282Z" fill="#8A4E3D"/>
<path d="M336.711 0.467758C340.967 11.4105 341.573 23.5648 339.142 35.1133C336.451 46.2478 332.801 57.3285 328.023 67.7421H333.552C342.271 45.9104 345.745 22.6983 336.711 0.467758Z" fill="#945745"/>
<path d="M405.504 0.467758H396.501C409.231 20.0297 411.485 43.9473 408.656 67.7421H411.876C413.502 44.484 410.841 22.1462 405.504 0.467758Z" fill="#945745"/>
<path d="M377.154 32.5214C376.955 34.5919 376.832 36.67 376.832 38.7635C376.986 36.7007 377.093 34.6149 377.154 32.5214Z" fill="#945745"/>
<path d="M391.686 0.467758H379.854C381.165 11.5025 378.166 21.9161 377.154 32.5214C377.093 34.6149 376.986 36.693 376.832 38.7635C376.832 36.67 376.955 34.5919 377.154 32.5214C377.469 21.9851 376.633 11.1651 374.762 0.467758H366.971C367.024 1.07356 367.063 1.67936 367.101 2.29282C368.673 25.2902 362.247 47.4747 351.036 67.7421H404.078C404.446 65.1425 404.653 62.5276 404.791 60.0354C405.289 39.4689 399.853 19.2935 391.686 0.467758Z" fill="#945745"/>
<path d="M396.494 0.467758H391.686C399.853 19.2935 405.289 39.469 404.799 60.0431C404.661 62.5277 404.461 65.1426 404.085 67.7498H408.648C411.478 43.9473 409.231 20.0374 396.494 0.467758Z" fill="#A86F57"/>
<path d="M377.154 32.5214C378.166 21.9161 381.165 11.5025 379.854 0.467758H374.762C376.64 11.1651 377.469 21.9928 377.154 32.5214Z" fill="#945745"/>
<path d="M451.008 67.7421H460.34C458.132 50.565 452.212 33.9401 442.481 18.7031C445.027 33.9554 449.796 51.1785 451.008 67.7421Z" fill="#8A4E3D"/>
<path d="M480.784 46.0561C477.218 30.3283 472.617 15.1526 467.104 0.467758H405.504C410.841 22.1462 413.502 44.484 411.869 67.7421H451.008C449.796 51.1785 445.027 33.9554 442.481 18.7031C452.212 33.9401 458.132 50.565 460.34 67.7421H482.709C483 60.6336 482.387 53.3486 480.784 46.0561Z" fill="#996049"/>
<path d="M904.468 12.0163C885.627 15.0529 866.778 16.2722 847.937 15.0529C809.035 13.2279 770.74 12.0163 731.83 9.58541C705.022 8.19744 678.919 4.00286 652.448 0.467751H611.069C610.341 3.22835 610.97 6.01196 612.457 8.66521C645.715 18.0973 680.069 22.8286 714.807 24.1783C745.81 24.7841 776.813 24.1783 807.808 25.3975C840.023 26.6168 872.245 24.7917 904.46 26.6168C991.994 31.4785 1077.7 47.8888 1164.63 51.5389C1165.64 51.5849 1166.66 51.6233 1167.67 51.6693V32.0383C1123.31 24.0249 1079.21 12.7984 1033.33 6.54108C1024.91 5.46751 1017.04 3.28203 1009.45 0.460083H828.114C851.058 13.1742 878.495 16.2645 904.468 12.0163Z" fill="#945745"/>
<path d="M611.077 0.467758H587.136C595.503 3.52743 603.945 6.24969 612.465 8.66522C610.97 6.01197 610.349 3.22836 611.077 0.467758Z" fill="#945745"/>
<path d="M731.838 9.58542C770.74 12.0163 809.035 13.2355 847.945 15.0529C866.786 16.2722 885.635 15.0529 904.476 12.0163C878.503 16.2645 851.058 13.1742 828.137 0.467758H652.456C678.919 4.00286 705.03 8.19745 731.838 9.58542Z" fill="#8A4E3D"/>
<path d="M1167.68 32.0383V0.467758H1009.46C1017.05 3.28971 1024.93 5.47519 1033.34 6.54875C1079.23 12.8061 1123.32 24.0326 1167.68 32.0383Z" fill="#996049"/>
<path d="M486.528 0.467758C492.126 16.5713 500.316 31.6242 511.787 44.8445C506.327 34.3772 503.59 22.982 502.754 11.2801C501.282 7.73735 499.986 4.12556 498.836 0.475427H486.528V0.467758Z" fill="#854B3A"/>
<path d="M486.528 0.467758H467.104C472.61 15.1526 477.218 30.3283 480.784 46.0561C482.387 53.341 483 60.6259 482.717 67.7421H548.664C536.778 58.3254 525.805 47.398 516.043 34.5075C510.415 27.2073 506.128 19.4086 502.754 11.2725C503.59 22.9743 506.327 34.3772 511.787 44.8368C500.315 31.6242 492.118 16.5713 486.528 0.467758Z" fill="#854B3A"/>
<path d="M550.083 12.6221C554.791 35.1133 568.502 54.0004 587.727 67.7421H620.103C615.187 65.6793 610.456 62.9647 606.001 59.4296C586.554 44.2386 569.53 27.8207 550.083 12.6221Z" fill="#8A4E3D"/>
<path d="M835.177 44.8445C765.878 43.6252 697.192 35.7268 627.28 30.8651C600.157 28.8713 575.396 17.1924 554.186 0.467758H502.493C502.417 4.08722 502.493 7.69901 502.746 11.2725C506.12 19.4009 510.407 27.1996 516.036 34.5075C525.797 47.398 536.771 58.3254 548.657 67.7421H587.727C568.502 54.0005 554.784 35.1133 550.083 12.6221C569.538 27.8207 586.554 44.231 606.008 59.4296C610.464 62.9647 615.195 65.6793 620.11 67.7421H1022.71C960.493 54.1078 898.77 46.2784 835.177 44.8445Z" fill="#945745"/>
<path d="M502.493 0.467758H498.828C499.978 4.12556 501.282 7.72968 502.746 11.2725C502.493 7.69901 502.417 4.08722 502.493 0.467758Z" fill="#945745"/>
<path d="M669.226 30.8651C657.677 27.8284 644.91 27.2149 633.361 24.1783C626.184 21.6477 616.368 15.5897 612.473 8.66522C603.953 6.24969 595.503 3.52743 587.144 0.467758H566.861C573.97 7.01652 581.677 12.9211 590.81 17.4915C615.732 30.8651 641.865 32.0767 669.226 30.8651Z" fill="#996049"/>
<path d="M984.725 37.9506C980.062 36.2943 975.392 35.6961 970.722 35.1133C975.5 35.7115 980.131 36.7697 984.725 37.9506Z" fill="#996049"/>
<path d="M1024.83 53.3563C1010.85 49.7062 998.688 43.6329 985.315 38.1577C985.116 38.081 984.924 38.0273 984.725 37.9506C980.131 36.762 975.492 35.7115 970.722 35.1133C975.392 35.6961 980.055 36.2943 984.725 37.9506C994.187 40.3968 1003.46 43.4181 1013.27 44.231C1021.18 44.8368 1027.87 49.0927 1035.16 51.5236C1059.48 58.2104 1084.4 55.7795 1109.32 55.1737C1128.03 54.752 1148.52 59.3683 1167.68 57.6122V51.6539C1166.66 51.6079 1165.65 51.5696 1164.64 51.5236C1077.71 47.8735 992.002 31.4632 904.468 26.6015C872.253 24.7764 840.03 26.6015 807.816 25.3822C776.813 24.1629 745.81 24.7764 714.814 24.1629C680.084 22.8133 645.722 18.0896 612.465 8.64988C616.368 15.5744 626.176 21.6247 633.353 24.1629C644.902 27.1996 657.67 27.8131 669.218 30.8497C641.865 32.069 615.724 30.8497 590.802 17.4761C581.669 12.9058 573.962 7.00886 566.853 0.452423H554.178C575.388 17.1771 600.149 28.8483 627.272 30.8497C697.177 35.7115 765.87 43.6175 835.169 44.8291C898.77 46.2631 960.485 54.1001 1022.7 67.7268H1043.13C1044.94 66.8373 1046.75 65.8941 1048.54 64.8818C1040.63 60.0431 1033.34 55.1737 1024.83 53.3563Z" fill="#996049"/>
<path d="M9.07387 50.312C6.11389 48.4639 3.28427 46.5775 0.562012 44.6451V67.7421H30.2998C26.0132 64.9585 21.7803 61.9985 17.5857 58.8238C14.5414 56.393 12.1105 52.7429 9.07387 50.312Z" fill="#945745"/>
<path d="M48.9569 67.7421H154.535C106.285 59.4526 59.5469 47.6587 15.7607 21.7474C10.0554 18.3657 5.02499 14.4625 0.562012 10.0762V20.7045C15.5613 37.9123 31.5881 53.6784 48.9569 67.7421Z" fill="#945745"/>
<path d="M9.07387 50.312C12.1105 52.7429 14.5414 56.393 17.5857 58.8239C21.7803 61.9986 26.0209 64.9585 30.2998 67.7421H48.9646C31.5881 53.6784 15.5613 37.9123 0.562012 20.7045V44.6528C3.2766 46.5852 6.10622 48.4639 9.07387 50.312Z" fill="#8A4E3D"/>
<path d="M207.845 5.32949C208.19 3.69613 208.474 2.07811 208.742 0.467758H124.912C137.703 14.8996 153.423 25.9113 170.761 30.8651C185.354 34.5075 204.195 22.3532 207.845 5.32949Z" fill="#854B3A"/>
<path d="M196.296 43.6252C207.239 36.3326 215.751 25.9957 225.474 16.878C229.125 13.8413 230.336 9.58542 230.942 4.72369C231.172 3.29738 231.402 1.8864 231.624 0.467758H220.314C217.292 16.9624 209.785 32.253 196.296 43.6252Z" fill="#A86F57"/>
<path d="M225.474 16.878C215.751 25.9957 207.239 36.3326 196.296 43.6252C209.785 32.253 217.292 16.9624 220.314 0.46776H208.742C208.481 2.07811 208.19 3.69613 207.845 5.32949C204.195 22.3532 185.354 34.5075 170.761 30.8574C153.423 25.9037 137.703 14.8919 124.912 0.460091H124.39C124.452 0.659468 124.505 0.866514 124.567 1.06589C127.603 11.4028 131.254 22.3379 140.371 29.6381C123.961 27.8131 109.368 18.0896 97.8195 7.14689C95.7337 4.99208 93.7937 2.76059 91.9686 0.460091H60.5514C105.273 35.5428 154.22 67.5274 211.495 61.8529C238.242 58.8162 246.754 26.5938 246.754 2.27749C246.754 1.66402 246.746 1.05822 246.731 0.452423H231.632C231.41 1.87107 231.187 3.28204 230.95 4.70835C230.336 9.58542 229.125 13.8414 225.474 16.878Z" fill="#945745"/>
<path d="M140.371 29.6458C131.253 22.3532 127.603 11.4105 124.567 1.07356C124.513 0.87418 124.452 0.667135 124.39 0.467758H91.9685C93.7936 2.76826 95.7337 4.99975 97.8194 7.15455C109.368 18.0973 123.961 27.8207 140.371 29.6458Z" fill="#8A4E3D"/>
<path d="M253.433 49.7062C265.588 51.5313 273.494 40.5885 277.144 30.8651C281.308 20.7812 284.927 10.5363 288.815 0.467758H272.474C271.715 18.266 266.109 35.3127 253.433 49.7062Z" fill="#A86F57"/>
<path d="M101.945 47.1143C112.773 54.2228 124.206 59.7287 137.327 61.2547C124.981 57.5969 113.233 52.7965 101.945 47.1143Z" fill="#996049"/>
<path d="M253.433 49.7071C266.109 35.3136 271.715 18.2669 272.466 0.468704H246.723C246.739 1.0745 246.746 1.6803 246.746 2.29377C246.746 26.6101 238.235 58.8248 211.487 61.8691C154.213 67.5437 105.266 35.5514 60.5438 0.476373H43.9495C52.3157 8.54347 60.3367 16.4802 70.4666 23.5658C81.0643 31.4335 91.2095 40.0604 101.953 47.1152C113.233 52.7975 124.989 57.5979 137.335 61.2556C124.214 59.7296 112.781 54.2238 101.953 47.1152C77.5292 34.8229 55.2833 18.3973 33.8196 0.468704H0.562012V10.0695C5.02499 14.4558 10.0554 18.3589 15.7607 21.7407C59.5469 47.6597 106.293 59.4459 154.542 67.7431H270.495C278.823 63.8706 286.607 58.7251 293.562 52.138C307.863 39.4852 313.699 21.3649 311.981 0.468704H288.807C284.919 10.5296 281.308 20.7745 277.136 30.866C273.494 40.5895 265.595 51.5322 253.433 49.7071Z" fill="#996049"/>
<path d="M70.4666 23.5648C60.3367 16.4793 52.3156 8.54252 43.9495 0.467758H33.8196C55.2833 18.3963 77.5291 34.8143 101.953 47.1143C91.2095 40.0594 81.0642 31.4402 70.4666 23.5648Z" fill="#A86F57"/>
<path d="M1165.81 58.0263C1166.18 58.9005 1166.53 59.7901 1166.73 60.7333C1166.94 61.6841 1167.05 62.704 1166.92 63.6702C1166.8 64.4831 1166.99 64.9432 1166.5 65.6487C1166.1 66.2085 1165.72 66.7683 1165.34 67.328C1165.3 67.3817 1165.26 67.4431 1165.26 67.5044C1165.26 67.6041 1165.34 67.6808 1165.44 67.7115C1166.58 68.0182 1168.09 67.8342 1169.36 67.9568C1170.39 68.0565 1171.42 68.2176 1172.44 68.4323C1173.34 68.624 1174.2 68.9461 1175.11 68.9614C1176.36 68.9844 1177.61 69.0074 1178.83 68.693C1181.53 68.0029 1182.91 65.7637 1183.34 63.1258C1183.47 62.3283 1183.43 61.5001 1183.58 60.7026C1183.8 59.4833 1184.43 58.4174 1185.09 57.3592C1178.72 56.9144 1172.27 57.0831 1165.81 58.0263Z" fill="#8A4E3D"/>
<path d="M1167.68 57.6199C1148.53 59.376 1128.04 54.752 1109.33 55.1814C1084.41 55.7872 1059.48 58.218 1035.17 51.5312C1027.87 49.1004 1021.19 44.8445 1013.28 44.2387C1003.46 43.4181 994.187 40.3968 984.732 37.9583C984.932 38.0273 985.123 38.0886 985.323 38.1653C998.696 43.6329 1010.85 49.7139 1024.84 53.364C1033.35 55.189 1040.64 60.0508 1048.55 64.9125C1046.76 65.9247 1044.95 66.8603 1043.13 67.7575H1167.69V57.6199H1167.68Z" fill="#8A4E3D"/>
</svg>
