<svg width="312" height="472" viewBox="0 0 312 472" fill="none" xmlns="http://www.w3.org/2000/svg">
<g clip-path="url(#clip0)">
<path opacity="0.27" fill-rule="evenodd" clip-rule="evenodd" d="M67.3925 9.92378L65.9841 11.5669H255.751L254.352 9.92378L263.569 9.90573L269.781 9.8967L298.887 9.8335H301.189L306.488 14.7357L311.806 19.6378L311.797 21.7594L311.733 48.6356L311.715 54.3683L311.697 62.8816L310.307 61.8705V419.196L311.697 418.176L311.715 426.698L311.733 432.431L311.797 459.307L311.806 461.429L306.488 466.331L301.189 471.233H298.887L269.781 471.17L263.569 471.161L254.352 471.134L255.751 469.5L256.537 468.588H65.2077L65.9841 469.5L67.3925 471.134L58.1659 471.161L51.9547 471.17L22.8577 471.233H20.5555L15.2471 466.331L9.92969 461.429L9.93867 459.307L10.0019 432.431L10.0199 426.698L10.038 418.176L12.4846 419.964V61.1031L10.038 62.8816L10.0199 54.3683L10.0019 48.6356L9.93867 21.7594L9.92969 19.6378L15.2471 14.7357L20.5555 9.8335H22.8577L51.9547 9.8967L58.1659 9.90573L67.3925 9.92378Z" fill="black"/>
<path fill-rule="evenodd" clip-rule="evenodd" d="M12.9432 3.80249H292.692H293.306L293.739 4.20874L301.295 11.1873L301.729 11.5936V12.1624V452.482V453.051L301.295 453.457L293.739 460.435L293.306 460.842H292.692H12.9432H12.3293L11.896 460.435L4.33959 453.457L3.90625 453.051V452.482V12.1533V11.5846L4.33959 11.1783L11.896 4.19971L12.3293 3.79346H12.9432V3.80249ZM292.078 6.54698H13.5571L6.87645 12.7131V451.895L13.5571 458.07H292.069L298.75 451.895V12.7221L292.078 6.54698Z" fill="black"/>
<path fill-rule="evenodd" clip-rule="evenodd" d="M12.9431 5.17493H292.692L300.239 12.1535V452.473L292.692 459.443H12.9431L5.38672 452.473V12.1535L12.9431 5.17493Z" fill="#CBCBCB"/>
<path fill-rule="evenodd" clip-rule="evenodd" d="M289.308 7.59412H16.3304H15.5449L14.9942 8.10871L8.56633 14.0401L8.01562 14.5547V15.2769V449.349V450.071L8.56633 450.586L14.9942 456.517L15.5449 457.023H16.3304H289.317H290.093L290.644 456.517L297.072 450.586L297.623 450.071V449.349V15.2769V14.5547L297.072 14.0401L290.644 8.10871L290.093 7.59412H289.308ZM16.3304 9.33651H289.317L295.736 15.2679V449.34L289.317 455.28H16.3304L9.90246 449.34V15.2769L16.3304 9.33651Z" fill="#989898"/>
<path fill-rule="evenodd" clip-rule="evenodd" d="M12.9431 6.24022H292.692L300.239 13.2098V12.1535L292.692 5.17493H12.9431L5.38672 12.1535V13.2098V388.465L6.20826 389.223L6.28951 12.4514L12.9431 6.24022Z" fill="white"/>
<path fill-rule="evenodd" clip-rule="evenodd" d="M18.1199 11.5492H287.513L293.345 16.9298V447.689L287.513 453.069H18.1199L12.2969 447.689V16.9298L18.1199 11.5492Z" fill="#7C4000"/>
<mask id="mask0" mask-type="alpha" maskUnits="userSpaceOnUse" x="12" y="11" width="282" height="443">
<path fill-rule="evenodd" clip-rule="evenodd" d="M18.1199 11.5492H287.513L293.345 16.9298V447.689L287.513 453.069H18.1199L12.2969 447.689V16.9298L18.1199 11.5492Z" fill="#7C4000"/>
</mask>
<g mask="url(#mask0)">
<path fill-rule="evenodd" clip-rule="evenodd" d="M209.756 -2.49857C159.001 5.66268 11.5744 17.2184 -64.2422 19.0421C27.0573 12.9031 127.71 7.33285 203.535 -3.81665L209.756 -2.49857Z" fill="#643200"/>
<path fill-rule="evenodd" clip-rule="evenodd" d="M464.975 -2.25488C469.543 1.03129 27.003 18.7892 -23.8243 21.0282C-28.3924 17.742 414.148 -0.0249832 464.975 -2.25488Z" fill="#643200"/>
<path fill-rule="evenodd" clip-rule="evenodd" d="M461.689 4.3266C418.355 7.58569 -81.9731 34.2 -89.8906 29.0361C9.06454 27.2124 457.049 2.39463 461.689 4.3266Z" fill="#643200"/>
<path fill-rule="evenodd" clip-rule="evenodd" d="M-93.5547 37.5765C96.0319 29.6229 283.75 19.9721 475.44 13.7157C476.794 15.0157 -88.8692 41.0794 -93.5547 37.5765Z" fill="#643200"/>
<path fill-rule="evenodd" clip-rule="evenodd" d="M-111.023 46.794C78.3104 41.2689 267.662 34.4889 457.032 23.863C466.295 29.0541 -106.455 51.7684 -111.023 46.794Z" fill="#643200"/>
<path fill-rule="evenodd" clip-rule="evenodd" d="M514.792 36.8993C521.517 42.7223 -21.1697 52.4905 -83.1013 53.4565C-83.5076 52.635 450.197 39.2285 514.792 36.8993Z" fill="#643200"/>
<path fill-rule="evenodd" clip-rule="evenodd" d="M49.6289 63.0441C191.656 53.5467 337.81 47.7057 488.468 44.5369C280.464 53.4384 50.6039 63.5046 49.6289 63.0441Z" fill="#643200"/>
<path fill-rule="evenodd" clip-rule="evenodd" d="M442.829 62.313C362.561 69.1471 282.312 75.0695 202.108 79.6647C121.886 84.2599 41.6091 87.528 -38.7305 89.0447C39.3341 90.8142 172.343 83.5557 202.126 81.8494C232.071 80.1341 403.792 69.0478 442.829 62.313Z" fill="#643200"/>
<path fill-rule="evenodd" clip-rule="evenodd" d="M205.973 81.3709C257.107 88.6835 404.975 94.5787 480.801 92.394C389.276 90.0287 288.452 88.9543 212.112 79.3306L205.973 81.3709Z" fill="#643200"/>
<path fill-rule="evenodd" clip-rule="evenodd" d="M442.785 53.1858C361.678 61.2026 280.129 67.8472 198.182 73.1827C116.182 78.5182 33.6393 82.5627 -49.3906 85.3794C13.4348 87.8169 168.038 77.3355 198.498 75.3494C228.688 73.3813 397.23 61.5186 442.785 53.1858Z" fill="#643200"/>
<path fill-rule="evenodd" clip-rule="evenodd" d="M-48.9014 96.7996C-53.2799 101.223 389.667 97.4767 440.548 97.2961C444.936 92.8724 1.98911 96.619 -48.9014 96.7996Z" fill="#643200"/>
<path fill-rule="evenodd" clip-rule="evenodd" d="M-45.2539 104.934C-1.80246 106.487 499.347 110.531 506.976 103.516C408.048 107.073 -40.7309 102.216 -45.2539 104.934Z" fill="#643200"/>
<path fill-rule="evenodd" clip-rule="evenodd" d="M511.102 114.115C321.326 115.289 133.319 114.196 -58.4705 117.636C-59.7524 119.36 506.615 118.828 511.102 114.115Z" fill="#643200"/>
<path fill-rule="evenodd" clip-rule="evenodd" d="M529.048 124.741C339.651 128.975 150.172 131.611 -39.5407 129.381C-48.4964 136.504 524.759 131.304 529.048 124.741Z" fill="#643200"/>
<path fill-rule="evenodd" clip-rule="evenodd" d="M-96.4985 149.306C-102.899 157.079 439.634 137.272 501.53 134.834C501.891 133.76 -31.8675 148.43 -96.4985 149.306Z" fill="#643200"/>
<path fill-rule="evenodd" clip-rule="evenodd" d="M369.497 154.831C227.127 151.22 80.8471 152.493 -69.793 157.413C138.427 156.348 368.54 155.472 369.497 154.831Z" fill="#643200"/>
<path fill-rule="evenodd" clip-rule="evenodd" d="M-27.625 171.813C52.841 173.447 133.244 174.359 213.538 174.232C293.86 174.097 374.163 172.923 454.467 170.359C376.583 175.406 243.43 175.903 213.61 175.948C183.638 176.002 11.6555 175.298 -27.625 171.813Z" fill="#643200"/>
<path fill-rule="evenodd" clip-rule="evenodd" d="M209.756 175.758C159.001 183.91 11.5744 195.475 -64.2422 197.299C27.0573 191.16 127.71 185.589 203.535 174.44L209.756 175.758Z" fill="#643200"/>
<path fill-rule="evenodd" clip-rule="evenodd" d="M-12.3373 176.083C6.1429 176.038 81.0386 175.009 81.6616 178.692H81.6706C82.7088 181.716 18.2403 187.368 -25.5 188.117C-8.39207 186.384 72.6788 180.94 71.9385 178.791C71.9295 175.848 9.4381 177.365 -12.3373 176.083Z" fill="#643200"/>
<path fill-rule="evenodd" clip-rule="evenodd" d="M-27.9648 164.617C53.3859 167.145 135.116 168.572 217.189 168.942C299.316 169.312 381.93 168.644 464.969 166.974C402.334 171.831 247.477 170.802 216.963 170.666C186.728 170.522 17.888 169.05 -27.9648 164.617Z" fill="#643200"/>
<path fill-rule="evenodd" clip-rule="evenodd" d="M464.975 175.993C469.543 179.279 27.003 197.037 -23.8243 199.276C-28.3924 195.99 414.148 178.232 464.975 175.993Z" fill="#643200"/>
<path fill-rule="evenodd" clip-rule="evenodd" d="M461.689 182.574C418.355 185.833 -81.9731 212.447 -89.8906 207.284C9.06454 205.469 457.049 180.651 461.689 182.574Z" fill="#643200"/>
<path fill-rule="evenodd" clip-rule="evenodd" d="M-93.5547 215.833C96.0319 207.879 283.75 198.229 475.44 191.972C476.794 193.272 -88.8692 219.336 -93.5547 215.833Z" fill="#643200"/>
<path fill-rule="evenodd" clip-rule="evenodd" d="M-111.023 225.05C78.3104 219.525 267.662 212.745 457.032 202.12C466.295 207.302 -106.455 230.016 -111.023 225.05Z" fill="#643200"/>
<path fill-rule="evenodd" clip-rule="evenodd" d="M514.792 215.156C521.517 220.979 -21.1697 230.747 -83.1013 231.713C-83.5076 230.882 450.197 217.485 514.792 215.156Z" fill="#643200"/>
<path fill-rule="evenodd" clip-rule="evenodd" d="M49.6289 241.301C191.656 231.803 337.81 225.962 488.468 222.793C280.464 231.686 50.6039 241.752 49.6289 241.301Z" fill="#643200"/>
<path fill-rule="evenodd" clip-rule="evenodd" d="M442.829 240.569C362.561 247.404 282.312 253.326 202.108 257.921C121.886 262.516 41.6091 265.775 -38.7305 267.301C39.3341 269.071 172.343 261.812 202.126 260.106C232.071 258.382 403.792 247.304 442.829 240.569Z" fill="#643200"/>
<path fill-rule="evenodd" clip-rule="evenodd" d="M205.973 259.627C257.107 266.94 404.975 272.835 480.801 270.651C389.276 268.294 288.452 267.211 212.112 257.587L205.973 259.627Z" fill="#643200"/>
<path fill-rule="evenodd" clip-rule="evenodd" d="M442.786 231.433C361.679 239.459 280.13 246.104 198.175 251.43C116.174 256.766 33.6315 260.81 -49.3984 263.627C13.4269 266.064 168.03 255.583 198.491 253.597C228.689 251.638 397.231 239.775 442.786 231.433Z" fill="#643200"/>
<path fill-rule="evenodd" clip-rule="evenodd" d="M-48.9014 275.056C-53.2799 279.48 389.667 275.733 440.548 275.553C444.936 271.129 1.98911 274.867 -48.9014 275.056Z" fill="#643200"/>
<path fill-rule="evenodd" clip-rule="evenodd" d="M-45.2539 283.19C-1.80246 284.743 499.347 288.779 506.976 281.773C408.048 285.33 -40.7309 280.473 -45.2539 283.19Z" fill="#643200"/>
<path fill-rule="evenodd" clip-rule="evenodd" d="M511.102 292.372C321.326 293.545 133.319 292.453 -58.4705 295.893C-59.7524 297.617 506.615 297.075 511.102 292.372Z" fill="#643200"/>
<path fill-rule="evenodd" clip-rule="evenodd" d="M529.048 302.998C339.651 307.232 150.172 309.868 -39.5407 307.638C-48.4964 314.752 524.759 309.561 529.048 302.998Z" fill="#643200"/>
<path fill-rule="evenodd" clip-rule="evenodd" d="M-96.4987 327.563C-102.89 335.336 439.634 315.528 501.53 313.091C501.891 312.017 -31.8677 326.687 -96.4987 327.563Z" fill="#643200"/>
<path fill-rule="evenodd" clip-rule="evenodd" d="M369.497 333.088C227.127 329.477 80.8471 330.75 -69.793 335.67C138.427 334.604 368.54 333.72 369.497 333.088Z" fill="#643200"/>
<path fill-rule="evenodd" clip-rule="evenodd" d="M445.52 352.326C364.927 354.502 284.425 355.495 204.077 354.746C123.701 353.996 43.3794 351.514 -36.8789 346.738C40.8606 355.63 174.095 357.328 203.932 357.608C233.932 357.878 406.077 357.842 445.52 352.326Z" fill="#643200"/>
<path fill-rule="evenodd" clip-rule="evenodd" d="M207.809 357.31C258.275 371.168 405.34 391.318 481.138 394.839C390.01 384.051 289.511 374.156 214.083 355.161L207.809 357.31Z" fill="#643200"/>
<path fill-rule="evenodd" clip-rule="evenodd" d="M446.163 340.391C364.64 344.057 282.793 345.871 200.639 345.944C118.431 346.016 35.7889 344.355 -47.25 341.05C15.2323 349.519 170.251 348.832 200.792 348.805C231.063 348.769 400.093 347.451 446.163 340.391Z" fill="#643200"/>
<path fill-rule="evenodd" clip-rule="evenodd" d="M-47.6229 356.019C-52.3265 361.435 389.835 393.819 440.608 397.863C445.311 392.437 3.15923 360.063 -47.6229 356.019Z" fill="#643200"/>
<path fill-rule="evenodd" clip-rule="evenodd" d="M-44.5977 366.952C-1.36288 372.639 498.261 420.09 506.395 411.568C407.44 407.902 -39.876 363.792 -44.5977 366.952Z" fill="#643200"/>
<path fill-rule="evenodd" clip-rule="evenodd" d="M509.718 425.778C320.312 411.342 132.847 394.09 -58.7435 382.443C-60.1518 384.592 504.888 431.546 509.718 425.778Z" fill="#643200"/>
<path fill-rule="evenodd" clip-rule="evenodd" d="M526.828 441.179C337.575 430.77 148.359 418.266 -40.7312 399.398C-50.2105 407.938 522.052 449.395 526.828 441.179Z" fill="#643200"/>
<path fill-rule="evenodd" clip-rule="evenodd" d="M-99.0625 420.632C-106.023 430.255 436.673 450.027 498.614 452.04C499.047 450.677 -34.5128 424.929 -99.0625 420.632Z" fill="#643200"/>
<path fill-rule="evenodd" clip-rule="evenodd" d="M365.4 467.071C223.643 450.379 77.6167 439.726 -73.0234 433.478C134.772 449.611 364.398 467.821 365.4 467.071Z" fill="#643200"/>
</g>
<path fill-rule="evenodd" clip-rule="evenodd" d="M289.31 457.023H15.5469L290.502 458.071L298.618 450.496L297.625 433.009L297.074 450.577L289.31 457.023Z" fill="white"/>
<g opacity="0.47">
<g opacity="0.47">
<path opacity="0.47" fill-rule="evenodd" clip-rule="evenodd" d="M12.2981 43.1018C27.2393 39.9511 277.178 39.6802 293.347 42.5782V16.9298L287.515 11.5492H18.1211L12.2891 16.9298V43.1018H12.2981Z" fill="#A95500"/>
</g>
</g>
<g opacity="0.47">
<g opacity="0.47">
<path opacity="0.47" fill-rule="evenodd" clip-rule="evenodd" d="M293.174 419.873C277.005 422.771 27.0572 422.492 12.125 419.35L12.2965 447.698L18.1286 453.078H287.522L293.354 447.698L293.174 419.873Z" fill="#4C2600"/>
</g>
</g>
<path fill-rule="evenodd" clip-rule="evenodd" d="M16.3302 9.33716H289.317C291.836 11.6573 292.964 12.7046 295.745 15.2685V449.341C293.154 451.733 291.854 452.934 289.317 455.272H16.3302C13.676 452.825 12.5385 451.769 9.90234 449.341V15.2775C12.692 12.6955 13.7121 11.7476 16.3302 9.33716ZM14.0823 20.6943V443.716L20.3206 450.298H284.469L290.518 444.231V20.92L283.286 14.4831H21.2234L14.0823 20.6943Z" fill="#4C2600"/>
<path fill-rule="evenodd" clip-rule="evenodd" d="M59.8732 2.93613L45.9161 19.2316L41.0319 13.0745H28.0769L13.2801 27.5734V38.6958L19.9427 43.2097L0.108331 57.6906C0.0722191 42.2438 0.0631955 26.797 0 11.3411L11.4113 0.805542L61.6066 0.913878L59.8732 2.93613ZM46.0063 15.1058L56.0183 3.41461L12.5398 3.32434L2.7174 12.3974L2.81671 52.5446L15.4829 43.3L10.5717 39.9777V26.5893L26.9213 10.5647H42.4132L46.0063 15.1058Z" fill="black"/>
<path fill-rule="evenodd" clip-rule="evenodd" d="M58.8183 2.15973L45.9715 17.1642L41.7284 11.8196H27.5004L11.9272 27.0768V39.3277L17.7141 43.2458L1.4638 55.1086C1.42769 40.6909 1.39158 26.2733 1.35547 11.8557L6.66389 6.95356L11.9723 2.05139C27.5816 2.09653 43.1999 2.13264 58.8183 2.15973Z" fill="#CBCBCB"/>
<path fill-rule="evenodd" clip-rule="evenodd" d="M10.8077 10.1047L14.6626 6.54768L14.9967 6.24073L16.1161 5.20252L56.137 5.28377L56.2363 5.17543L57.4099 3.80319L58.8183 2.1601L11.9813 2.06982L6.67291 6.97199L1.35547 11.8742L1.4638 55.118L3.90135 53.3395L5.39095 52.2471L5.58956 52.1026L5.49929 15.0069L6.29374 14.2756L6.88057 13.7339L10.8077 10.1047Z" fill="white"/>
<path fill-rule="evenodd" clip-rule="evenodd" d="M9.78516 23.4928V37.8923L11.9157 39.3368V27.0769L27.4889 11.8197H41.717L43.8295 14.4829L45.9601 17.1642C50.2393 12.1627 54.5276 7.16126 58.8068 2.15979L48.6324 5.2654L47.8018 6.23139L47.5309 6.54737L46.6372 7.59461L45.1566 9.337L43.2607 11.5488L42.8725 12.1266L40.0919 9.28283H24.5639L9.78516 23.4928Z" fill="#989898"/>
<path fill-rule="evenodd" clip-rule="evenodd" d="M9.90084 41.7561L8.014 43.1373L6.88551 43.9679L6.28966 44.4012L5.57646 44.9158L1.46875 55.1174C6.88551 51.1632 12.3023 47.2089 17.719 43.2547C16.0128 42.0991 14.3065 40.9435 12.6092 39.788L9.90084 41.7561Z" fill="#989898"/>
<path fill-rule="evenodd" clip-rule="evenodd" d="M42.2436 4.06507C43.1374 3.2345 44.311 2.81921 45.4846 2.81921C46.6583 2.81921 47.8319 3.2345 48.7257 4.05604C49.6194 4.88661 50.0708 5.96996 50.0708 7.05332C50.0708 8.13667 49.6194 9.22002 48.7257 10.0506C47.8319 10.8812 46.6583 11.2874 45.4846 11.2874C44.311 11.2874 43.1374 10.8721 42.2436 10.0506C41.3408 9.22002 40.8984 8.13667 40.8984 7.05332C40.8984 5.97899 41.3498 4.89564 42.2436 4.06507ZM43.6068 5.31995C43.0832 5.79843 42.8304 6.43039 42.8304 7.06234C42.8304 7.6943 43.0922 8.32625 43.6068 8.80473C44.1304 9.28322 44.8075 9.52697 45.4937 9.52697C46.1707 9.52697 46.8569 9.28322 47.3715 8.80473C47.8951 8.32625 48.1569 7.6943 48.1569 7.06234C48.1569 6.43039 47.8951 5.79843 47.3805 5.31995C46.8569 4.84147 46.1707 4.59772 45.4937 4.59772C44.8166 4.59772 44.1214 4.84147 43.6068 5.31995Z" fill="black"/>
<path fill-rule="evenodd" clip-rule="evenodd" d="M42.9195 4.69675C44.3369 3.3877 46.63 3.3877 48.0474 4.69675C49.4648 6.0058 49.4648 8.11834 48.0474 9.42739C46.63 10.7364 44.3369 10.7364 42.9195 9.42739C41.5112 8.11834 41.5112 6.0058 42.9195 4.69675Z" fill="#CBCBCB"/>
<path fill-rule="evenodd" clip-rule="evenodd" d="M43.5221 8.56994C43.8381 8.28105 44.3527 8.28105 44.6687 8.56994C44.9847 8.85884 44.9847 9.33732 44.6687 9.62621C44.3527 9.9151 43.8381 9.9151 43.5221 9.62621C43.2062 9.33732 43.2062 8.85884 43.5221 8.56994Z" fill="white"/>
<path fill-rule="evenodd" clip-rule="evenodd" d="M3.36469 40.2216C4.25846 39.391 5.43209 38.9847 6.60572 38.9847C7.77935 38.9847 8.94395 39.4 9.84675 40.2306C10.7405 41.0521 11.1919 42.1355 11.1919 43.2188C11.1919 44.3022 10.7405 45.3855 9.84675 46.2071C8.95298 47.0377 7.77935 47.4529 6.60572 47.4529C5.43209 47.4529 4.25846 47.0377 3.36469 46.2161C2.4619 45.3855 2.01953 44.3022 2.01953 43.2188C2.01953 42.1355 2.47093 41.0521 3.36469 40.2216ZM6.60572 40.7542C5.92863 40.7542 5.24251 40.998 4.71889 41.4764C4.2043 41.9549 3.94248 42.5869 3.94248 43.2098C3.94248 43.8418 4.2043 44.4737 4.71889 44.9522C5.24251 45.4307 5.92863 45.6744 6.60572 45.6744C7.28282 45.6744 7.96894 45.4307 8.49256 44.9522C9.00715 44.4737 9.26896 43.8418 9.26896 43.2098C9.26896 42.5779 9.00715 41.9549 8.49256 41.4764C7.96894 40.998 7.29185 40.7542 6.60572 40.7542Z" fill="black"/>
<path fill-rule="evenodd" clip-rule="evenodd" d="M4.04351 40.8535C5.46089 39.5444 7.75399 39.5444 9.17137 40.8535C10.5888 42.1625 10.5888 44.2751 9.17137 45.5841C7.75399 46.8932 5.46089 46.8932 4.04351 45.5841C2.62612 44.2751 2.62612 42.1625 4.04351 40.8535Z" fill="#CBCBCB"/>
<path fill-rule="evenodd" clip-rule="evenodd" d="M4.44168 41.0969C5.21808 40.3837 6.47296 40.3837 7.24936 41.0969C8.02576 41.8101 8.02576 42.9747 7.24936 43.6879C6.47296 44.4011 5.21808 44.4011 4.44168 43.6879C3.66527 42.9747 3.66527 41.8101 4.44168 41.0969Z" fill="white"/>
<path fill-rule="evenodd" clip-rule="evenodd" d="M4.64714 44.7267C4.96312 44.4378 5.4777 44.4378 5.79368 44.7267C6.10965 45.0156 6.10965 45.4941 5.79368 45.7829C5.4777 46.0718 4.96312 46.0718 4.64714 45.7829C4.33116 45.4941 4.33116 45.0156 4.64714 44.7267Z" fill="white"/>
<path fill-rule="evenodd" clip-rule="evenodd" d="M7.32991 7.55853C8.91883 6.08697 11.0043 5.35571 13.0897 5.35571C15.1752 5.35571 17.2606 6.08697 18.8405 7.5495C20.4294 9.02105 21.2239 10.944 21.2239 12.867C21.2239 14.7899 20.4294 16.7129 18.8405 18.1844C17.2516 19.6469 15.1662 20.3872 13.0807 20.3872C11.0043 20.3872 8.91883 19.6469 7.32991 18.1844C5.74099 16.7129 4.9375 14.7899 4.9375 12.867C4.94653 10.953 5.74099 9.02105 7.32991 7.55853ZM9.16258 9.24675C8.07923 10.2489 7.53755 11.5579 7.53755 12.876C7.53755 14.185 8.07923 15.5031 9.16258 16.5052C10.2459 17.4983 11.6633 18.0038 13.0897 18.0038C14.5071 18.0038 15.9335 17.4983 17.0169 16.5052C18.1002 15.5031 18.6419 14.1941 18.6419 12.885C18.6419 11.576 18.1002 10.2579 17.0169 9.26481C15.9245 8.26271 14.5071 7.76617 13.0897 7.76617C11.6723 7.74811 10.2459 8.24465 9.16258 9.24675Z" fill="black"/>
<path fill-rule="evenodd" clip-rule="evenodd" d="M8.25029 8.40736C10.9226 5.93371 15.256 5.93371 17.9282 8.40736C20.6005 10.872 20.6005 14.8804 17.9282 17.345C15.256 19.8096 10.9226 19.8096 8.25029 17.345C5.57803 14.8714 5.57803 10.872 8.25029 8.40736Z" fill="#CBCBCB"/>
<path fill-rule="evenodd" clip-rule="evenodd" d="M8.99143 8.8672C10.454 7.51302 12.8283 7.51302 14.2908 8.8672C15.7533 10.2214 15.7533 12.4152 14.2908 13.7603C12.8283 15.1145 10.454 15.1145 8.99143 13.7603C7.5289 12.4152 7.5289 10.2214 8.99143 8.8672Z" fill="white"/>
<path fill-rule="evenodd" clip-rule="evenodd" d="M9.38048 15.7198C9.97632 15.1691 10.9513 15.1691 11.5472 15.7198C12.143 16.2705 12.143 17.1643 11.5472 17.724C10.9513 18.2747 9.97632 18.2747 9.38048 17.724C8.78463 17.1643 8.78463 16.2705 9.38048 15.7198Z" fill="white"/>
<path fill-rule="evenodd" clip-rule="evenodd" d="M250.345 3.40547L260.366 15.0966L263.968 10.5556H279.46L295.81 26.5802V39.9596L290.898 43.2819L303.565 52.5265L303.664 12.3792L293.841 3.30616L250.345 3.40547ZM259.346 17.9404L244.766 0.922787L294.961 0.814453L306.372 11.3501L306.264 57.6995L286.43 43.2187L293.092 38.7047V27.5732L278.295 13.0744H265.34L260.447 19.2314L259.346 17.9404Z" fill="black"/>
<path fill-rule="evenodd" clip-rule="evenodd" d="M247.555 2.15973L260.401 17.1642L264.645 11.8196H278.873L294.446 27.0768V39.3277L288.659 43.2458L304.909 55.1086C304.945 40.6909 304.972 26.2733 305.017 11.8557L299.709 6.95356L294.401 2.05139C278.782 2.09653 263.173 2.13264 247.555 2.15973Z" fill="#CBCBCB"/>
<path fill-rule="evenodd" clip-rule="evenodd" d="M295.556 10.1047L291.71 6.54768L291.367 6.24073L290.248 5.20252L250.227 5.28377L250.137 5.17543L248.963 3.80319L247.555 2.1601L294.392 2.06982L299.7 6.97199L305.008 11.8742L304.9 55.118L302.463 53.3395L300.973 52.2471L300.774 52.1026L300.865 15.0069L300.079 14.2756L299.483 13.7339L295.556 10.1047Z" fill="white"/>
<path fill-rule="evenodd" clip-rule="evenodd" d="M296.576 23.4928V37.8923L294.446 39.3368V27.0769L278.873 11.8197H264.645L262.532 14.4829L260.401 17.1642C256.122 12.1627 251.834 7.16126 247.555 2.15979L257.729 5.2654L258.56 6.23139L258.831 6.54737L259.724 7.59461L261.214 9.337L263.11 11.5488L263.498 12.1266L266.279 9.28283H281.807L296.576 23.4928Z" fill="#989898"/>
<path fill-rule="evenodd" clip-rule="evenodd" d="M296.471 41.7561L298.357 43.1373L299.486 43.9679L300.082 44.4012L300.795 44.9158L304.903 55.1174C299.486 51.1632 294.069 47.2089 288.652 43.2547C290.359 42.0991 292.065 40.9435 293.762 39.788L296.471 41.7561Z" fill="#989898"/>
<path fill-rule="evenodd" clip-rule="evenodd" d="M257.639 4.06483C258.542 3.24329 259.716 2.828 260.88 2.828C262.045 2.828 263.219 3.24329 264.112 4.06483C265.015 4.8954 265.458 5.97875 265.458 7.0621C265.458 8.14546 265.015 9.22881 264.112 10.0594C263.21 10.8899 262.036 11.2962 260.871 11.2962C259.707 11.2962 258.533 10.8809 257.63 10.0594C256.728 9.22881 256.285 8.14546 256.285 7.0621C256.294 5.97875 256.746 4.8954 257.639 4.06483ZM259.003 5.31971C258.488 5.80722 258.226 6.43015 258.226 7.0621C258.226 7.69406 258.488 8.32601 259.003 8.8045C259.526 9.28298 260.203 9.52673 260.889 9.52673C261.567 9.52673 262.253 9.292 262.776 8.81352C263.3 8.33504 263.553 7.70309 263.553 7.07113C263.553 6.43918 263.291 5.80722 262.776 5.32874C262.253 4.85026 261.576 4.60651 260.889 4.60651C260.203 4.60651 259.517 4.84123 259.003 5.31971Z" fill="black"/>
<path fill-rule="evenodd" clip-rule="evenodd" d="M258.317 4.69675C259.734 3.3877 262.027 3.3877 263.445 4.69675C264.862 6.0058 264.862 8.11834 263.445 9.42739C262.027 10.7364 259.734 10.7364 258.317 9.42739C256.9 8.11834 256.9 6.0058 258.317 4.69675Z" fill="#CBCBCB"/>
<path fill-rule="evenodd" clip-rule="evenodd" d="M296.513 40.2216C297.407 39.391 298.581 38.9847 299.754 38.9847C300.928 38.9847 302.101 39.4 302.995 40.2216C303.898 41.0431 304.34 42.1355 304.34 43.2188C304.34 44.3022 303.889 45.3855 302.995 46.2071C302.101 47.0377 300.928 47.4529 299.754 47.4529C298.581 47.4529 297.407 47.0377 296.513 46.2161C295.619 45.3855 295.168 44.3022 295.168 43.2188C295.168 42.1355 295.619 41.0521 296.513 40.2216ZM297.876 41.4764C297.353 41.9549 297.091 42.5869 297.091 43.2188C297.091 43.8508 297.353 44.4828 297.867 44.9612C298.391 45.4397 299.068 45.6835 299.754 45.6835C300.431 45.6835 301.117 45.4397 301.641 44.9612C302.165 44.4828 302.417 43.8508 302.417 43.2188C302.417 42.5869 302.156 41.964 301.641 41.4855C301.117 41.007 300.44 40.7632 299.754 40.7632C299.077 40.7542 298.391 40.998 297.876 41.4764Z" fill="black"/>
<path fill-rule="evenodd" clip-rule="evenodd" d="M297.189 40.8535C298.606 39.5444 300.9 39.5444 302.317 40.8535C303.734 42.1625 303.734 44.2751 302.317 45.5841C300.9 46.8932 298.606 46.8932 297.189 45.5841C295.781 44.2751 295.781 42.1625 297.189 40.8535Z" fill="#CBCBCB"/>
<path fill-rule="evenodd" clip-rule="evenodd" d="M297.586 41.0969C298.363 40.3837 299.618 40.3837 300.394 41.0969C301.17 41.8101 301.17 42.9747 300.394 43.6879C299.618 44.4011 298.363 44.4011 297.586 43.6879C296.81 42.9747 296.81 41.8101 297.586 41.0969Z" fill="white"/>
<path fill-rule="evenodd" clip-rule="evenodd" d="M297.796 44.7267C298.112 44.4378 298.626 44.4378 298.942 44.7267C299.258 45.0156 299.258 45.4941 298.942 45.7829C298.626 46.0718 298.112 46.0718 297.796 45.7829C297.48 45.4941 297.48 45.0156 297.796 44.7267Z" fill="white"/>
<path fill-rule="evenodd" clip-rule="evenodd" d="M287.52 7.55853C289.109 6.096 291.194 5.35571 293.28 5.35571C295.365 5.35571 297.442 6.096 299.031 7.55853C300.62 9.03008 301.423 10.953 301.423 12.876C301.423 14.7989 300.629 16.7219 299.04 18.1934C297.442 19.656 295.365 20.3962 293.28 20.3962C291.194 20.3962 289.118 19.656 287.529 18.1934C285.94 16.7219 285.137 14.7989 285.137 12.876C285.137 10.953 285.931 9.02105 287.52 7.55853ZM289.353 9.24675C288.269 10.2489 287.728 11.5579 287.728 12.867C287.728 14.176 288.269 15.4941 289.353 16.4962C290.436 17.4893 291.853 17.9948 293.28 17.9948C294.706 17.9948 296.124 17.4893 297.207 16.4962C298.29 15.4941 298.832 14.185 298.832 12.867C298.832 11.5489 298.29 10.2398 297.216 9.24675C296.133 8.24465 294.706 7.73909 293.289 7.73909C291.853 7.74811 290.436 8.24465 289.353 9.24675Z" fill="black"/>
<path fill-rule="evenodd" clip-rule="evenodd" d="M288.434 8.40736C291.106 5.93371 295.44 5.93371 298.112 8.40736C300.784 10.872 300.784 14.8804 298.112 17.345C295.44 19.8096 291.106 19.8096 288.434 17.345C285.762 14.8714 285.762 10.872 288.434 8.40736Z" fill="#CBCBCB"/>
<path fill-rule="evenodd" clip-rule="evenodd" d="M289.182 8.8672C290.644 7.51302 293.019 7.51302 294.481 8.8672C295.944 10.2214 295.944 12.4152 294.481 13.7603C293.019 15.1145 290.644 15.1145 289.182 13.7603C287.71 12.4152 287.71 10.2214 289.182 8.8672Z" fill="white"/>
<path fill-rule="evenodd" clip-rule="evenodd" d="M289.572 15.7198C290.168 15.1691 291.143 15.1691 291.739 15.7198C292.334 16.2705 292.334 17.1643 291.739 17.724C291.143 18.2747 290.168 18.2747 289.572 17.724C288.976 17.1643 288.976 16.2705 289.572 15.7198Z" fill="white"/>
<path fill-rule="evenodd" clip-rule="evenodd" d="M56.0171 461.988L45.9961 450.297L42.394 454.829H26.902L10.5524 438.814V425.434L15.4636 422.112L2.79745 412.867L2.69814 453.024L12.5205 462.097L56.0171 461.988ZM47.0253 447.453L61.6054 464.48C44.8766 464.507 28.1479 464.525 11.4191 464.588C7.62739 461.068 3.8176 457.556 0.0078125 454.053C0.071008 438.606 0.0890664 423.159 0.11615 407.703L19.9505 422.184L13.2879 426.698V437.83L28.0847 452.329H41.0398L45.9239 446.172L47.0253 447.453Z" fill="black"/>
<path fill-rule="evenodd" clip-rule="evenodd" d="M58.8183 463.235L45.9715 448.23L41.7284 453.575H27.5004L11.9272 438.318V426.067L17.7141 422.149L1.4638 410.286C1.42769 424.703 1.39158 439.121 1.35547 453.53L6.66389 458.432L11.9723 463.334C27.5816 463.298 43.1999 463.271 58.8183 463.235Z" fill="#CBCBCB"/>
<path fill-rule="evenodd" clip-rule="evenodd" d="M10.8077 455.289L14.6626 458.846L14.9967 459.162L16.1161 460.192L56.137 460.11L56.2363 460.219L57.4099 461.591L58.8183 463.234L11.9813 463.333L6.67291 458.431L1.35547 453.529L1.4638 410.276L3.90135 412.064L5.39095 413.147L5.58956 413.291L5.49929 450.387L6.29374 451.118L6.88057 451.66L10.8077 455.289Z" fill="#989898"/>
<path fill-rule="evenodd" clip-rule="evenodd" d="M9.78516 441.901V427.511L11.9157 426.066V438.317L27.4889 453.574H41.717L43.8295 450.911L45.9601 448.23C50.2393 453.231 54.5276 458.233 58.8068 463.234L48.6324 460.129L47.8018 459.163L47.5309 458.847L46.6372 457.799L45.1476 456.057L43.2517 453.845L42.8635 453.267L40.0829 456.111H24.5548L9.78516 441.901Z" fill="white"/>
<path fill-rule="evenodd" clip-rule="evenodd" d="M9.90084 423.638L8.014 422.257L6.88551 421.426L6.28966 420.993L5.57646 420.478L1.46875 410.286C6.88551 414.24 12.3023 418.194 17.719 422.149C16.0128 423.304 14.3065 424.46 12.6092 425.606L9.90084 423.638Z" fill="white"/>
<path fill-rule="evenodd" clip-rule="evenodd" d="M43.5978 460.074C44.1214 460.553 44.8075 460.797 45.4846 460.797C46.1617 460.797 46.8478 460.553 47.3715 460.074C47.8861 459.596 48.1479 458.964 48.1479 458.332C48.1479 457.7 47.8861 457.068 47.3715 456.599C46.8478 456.12 46.1617 455.877 45.4846 455.877C44.7985 455.877 44.1214 456.12 43.5978 456.59C43.0832 457.068 42.8214 457.7 42.8214 458.332C42.8214 458.964 43.0832 459.596 43.5978 460.074ZM45.4846 462.566C44.311 462.566 43.1374 462.151 42.2436 461.329C41.3408 460.499 40.8984 459.415 40.8984 458.332C40.8984 457.249 41.3498 456.165 42.2436 455.335C43.1464 454.504 44.32 454.089 45.4846 454.089C46.6583 454.089 47.8319 454.504 48.7257 455.326C49.6194 456.156 50.0708 457.24 50.0708 458.323C50.0708 459.406 49.6194 460.49 48.7257 461.32C47.8319 462.16 46.6583 462.566 45.4846 462.566Z" fill="black"/>
<path fill-rule="evenodd" clip-rule="evenodd" d="M42.9195 460.707C44.3369 462.016 46.63 462.016 48.0474 460.707C49.4648 459.398 49.4648 457.285 48.0474 455.976C46.63 454.667 44.3369 454.667 42.9195 455.976C41.5112 457.276 41.5112 459.398 42.9195 460.707Z" fill="#CBCBCB"/>
<path fill-rule="evenodd" clip-rule="evenodd" d="M43.3167 460.454C44.0931 461.167 45.348 461.167 46.1244 460.454C46.9008 459.741 46.9008 458.576 46.1244 457.863C45.348 457.15 44.0931 457.15 43.3167 457.863C42.5403 458.576 42.5403 459.741 43.3167 460.454Z" fill="white"/>
<path fill-rule="evenodd" clip-rule="evenodd" d="M43.5221 456.824C43.8381 457.113 44.3527 457.113 44.6687 456.824C44.9847 456.536 44.9847 456.057 44.6687 455.768C44.3527 455.479 43.8381 455.479 43.5221 455.768C43.2062 456.057 43.2062 456.536 43.5221 456.824Z" fill="white"/>
<path fill-rule="evenodd" clip-rule="evenodd" d="M4.71889 423.918C5.24251 424.396 5.9196 424.64 6.60572 424.64C7.28282 424.64 7.96894 424.396 8.49256 423.918C9.00715 423.439 9.26896 422.807 9.26896 422.175C9.26896 421.543 9.00715 420.911 8.49256 420.433C7.96894 419.954 7.29185 419.711 6.60572 419.711C5.9196 419.711 5.24251 419.954 4.71889 420.433C4.2043 420.911 3.94248 421.543 3.94248 422.175C3.94248 422.807 4.2043 423.439 4.71889 423.918ZM6.60572 426.419C5.43209 426.419 4.25846 426.003 3.36469 425.173C2.4619 424.351 2.01953 423.259 2.01953 422.175C2.01953 421.092 2.47093 420.009 3.36469 419.178C4.26748 418.348 5.44112 417.932 6.60572 417.932C7.77935 417.932 8.95298 418.348 9.84675 419.178C10.7405 420.009 11.1919 421.092 11.1919 422.175C11.1919 423.259 10.7405 424.342 9.84675 425.173C8.95298 426.003 7.77935 426.419 6.60572 426.419Z" fill="black"/>
<path fill-rule="evenodd" clip-rule="evenodd" d="M4.04351 424.55C5.46089 425.859 7.75399 425.859 9.17137 424.55C10.5888 423.241 10.5888 421.128 9.17137 419.819C7.75399 418.51 5.46089 418.51 4.04351 419.819C2.62612 421.119 2.62612 423.241 4.04351 424.55Z" fill="#CBCBCB"/>
<path fill-rule="evenodd" clip-rule="evenodd" d="M4.44168 424.297C5.21808 425.011 6.47296 425.011 7.24936 424.297C8.02576 423.584 8.02576 422.419 7.24936 421.706C6.47296 420.993 5.21808 420.993 4.44168 421.706C3.66527 422.429 3.66527 423.584 4.44168 424.297Z" fill="white"/>
<path fill-rule="evenodd" clip-rule="evenodd" d="M4.64714 420.677C4.96312 420.966 5.4777 420.966 5.79368 420.677C6.10965 420.388 6.10965 419.909 5.79368 419.62C5.4777 419.331 4.96312 419.331 4.64714 419.62C4.33116 419.909 4.33116 420.379 4.64714 420.677Z" fill="white"/>
<path fill-rule="evenodd" clip-rule="evenodd" d="M9.16526 456.147C10.2486 457.149 11.675 457.646 13.0924 457.646C14.5098 457.646 15.9362 457.149 17.0196 456.147C18.1029 455.145 18.6446 453.836 18.6446 452.527C18.6446 451.209 18.1029 449.9 17.0286 448.907C15.9362 447.905 14.5188 447.408 13.1014 447.408C11.6841 447.408 10.2576 447.905 9.18331 448.907C8.09996 449.909 7.55829 451.218 7.55829 452.527C7.54024 453.836 8.08191 455.154 9.16526 456.147ZM13.0924 460.038C11.016 460.038 8.93053 459.298 7.34162 457.835C5.7527 456.364 4.94922 454.441 4.94922 452.518C4.94922 450.595 5.74368 448.672 7.33259 447.2C8.92151 445.729 11.007 444.998 13.0924 444.998C15.1688 444.998 17.2543 445.729 18.8432 447.2C20.4321 448.672 21.2266 450.595 21.2266 452.518C21.2266 454.441 20.4321 456.364 18.8432 457.835C17.2633 459.307 15.1688 460.038 13.0924 460.038Z" fill="black"/>
<path fill-rule="evenodd" clip-rule="evenodd" d="M8.25029 456.996C10.9226 459.46 15.256 459.46 17.9282 456.996C20.6005 454.531 20.6005 450.523 17.9282 448.058C15.256 445.594 10.9226 445.594 8.25029 448.058C5.57803 450.523 5.57803 454.522 8.25029 456.996Z" fill="#CBCBCB"/>
<path fill-rule="evenodd" clip-rule="evenodd" d="M8.99143 456.527C10.454 457.881 12.8283 457.881 14.2908 456.527C15.7533 455.172 15.7533 452.988 14.2908 451.634C12.8283 450.279 10.454 450.279 8.99143 451.634C7.5289 452.988 7.5289 455.172 8.99143 456.527Z" fill="white"/>
<path fill-rule="evenodd" clip-rule="evenodd" d="M9.38048 449.683C9.97632 450.234 10.9513 450.234 11.5472 449.683C12.143 449.133 12.143 448.239 11.5472 447.679C10.9513 447.128 9.97632 447.128 9.38048 447.679C8.78463 448.23 8.78463 449.124 9.38048 449.683Z" fill="white"/>
<path fill-rule="evenodd" clip-rule="evenodd" d="M246.49 462.458L260.447 446.162L265.34 452.32H278.295L293.092 437.821V426.698L286.43 422.184L306.264 407.703L306.372 454.053L294.961 464.588C278.232 464.534 261.494 464.516 244.766 464.48L246.49 462.458ZM260.366 450.297L250.345 461.988L293.823 462.079L303.646 453.006L303.546 412.849L290.88 422.103L295.791 425.425V438.805L279.442 454.829H263.95L260.366 450.297Z" fill="black"/>
<path fill-rule="evenodd" clip-rule="evenodd" d="M247.555 463.235L260.401 448.23L264.645 453.575H278.873L294.446 438.318V426.067L288.659 422.149L304.909 410.286C304.945 424.703 304.972 439.121 305.017 453.53L299.709 458.432L294.401 463.334C278.782 463.298 263.173 463.271 247.555 463.235Z" fill="#CBCBCB"/>
<path fill-rule="evenodd" clip-rule="evenodd" d="M295.556 455.289L291.71 458.846L291.367 459.162L290.248 460.192L250.227 460.11L250.137 460.219L248.963 461.591L247.555 463.234L294.392 463.333L299.7 458.431L305.008 453.529L304.9 410.276L302.463 412.064L300.973 413.147L300.774 413.291L300.865 450.387L300.079 451.118L299.483 451.66L295.556 455.289Z" fill="#989898"/>
<path fill-rule="evenodd" clip-rule="evenodd" d="M296.576 441.901V427.511L294.446 426.066V438.317L278.873 453.574H264.645L262.532 450.911L260.401 448.23C256.122 453.231 251.834 458.233 247.555 463.234L257.729 460.129L258.56 459.163L258.831 458.847L259.724 457.799L261.214 456.057L263.11 453.845L263.498 453.267L266.279 456.111H281.807L296.576 441.901Z" fill="white"/>
<path fill-rule="evenodd" clip-rule="evenodd" d="M296.471 423.638L298.357 422.257L299.486 421.426L300.082 420.993L300.795 420.478L304.903 410.286C299.486 414.24 294.069 418.194 288.652 422.149C290.359 423.304 292.065 424.46 293.762 425.606L296.471 423.638Z" fill="white"/>
<path fill-rule="evenodd" clip-rule="evenodd" d="M259.001 460.074C259.525 460.553 260.202 460.797 260.888 460.797C261.565 460.797 262.251 460.553 262.766 460.074C263.29 459.596 263.542 458.964 263.542 458.332C263.542 457.7 263.281 457.068 262.766 456.599C262.242 456.12 261.556 455.877 260.879 455.877C260.193 455.877 259.516 456.111 258.992 456.59C258.478 457.077 258.216 457.7 258.216 458.332C258.216 458.964 258.478 459.596 259.001 460.074ZM260.879 462.566C259.706 462.566 258.532 462.151 257.638 461.329C256.744 460.499 256.293 459.415 256.293 458.332C256.293 457.249 256.744 456.165 257.638 455.335C258.541 454.504 259.715 454.089 260.879 454.089C262.053 454.089 263.217 454.504 264.111 455.326C265.014 456.156 265.465 457.24 265.465 458.323C265.465 459.406 265.023 460.49 264.12 461.32C263.226 462.16 262.053 462.566 260.879 462.566Z" fill="black"/>
<path fill-rule="evenodd" clip-rule="evenodd" d="M258.317 460.707C259.734 462.016 262.027 462.016 263.445 460.707C264.862 459.398 264.862 457.285 263.445 455.976C262.027 454.667 259.734 454.667 258.317 455.976C256.9 457.276 256.9 459.398 258.317 460.707Z" fill="#CBCBCB"/>
<path fill-rule="evenodd" clip-rule="evenodd" d="M258.715 460.454C259.492 461.167 260.746 461.167 261.523 460.454C262.299 459.741 262.299 458.576 261.523 457.863C260.746 457.15 259.492 457.15 258.715 457.863C257.939 458.576 257.939 459.741 258.715 460.454Z" fill="white"/>
<path fill-rule="evenodd" clip-rule="evenodd" d="M258.921 456.824C259.237 457.113 259.751 457.113 260.067 456.824C260.383 456.536 260.383 456.057 260.067 455.768C259.751 455.479 259.237 455.479 258.921 455.768C258.605 456.057 258.605 456.536 258.921 456.824Z" fill="white"/>
<path fill-rule="evenodd" clip-rule="evenodd" d="M297.867 423.918C298.382 424.396 299.068 424.64 299.754 424.64C300.44 424.64 301.117 424.396 301.641 423.918C302.165 423.439 302.417 422.807 302.417 422.175C302.417 421.543 302.156 420.911 301.641 420.433C301.117 419.954 300.431 419.711 299.754 419.711C299.077 419.711 298.391 419.954 297.867 420.433C297.353 420.911 297.091 421.543 297.091 422.175C297.091 422.807 297.353 423.439 297.867 423.918ZM299.754 426.419C298.581 426.419 297.416 426.003 296.513 425.173C295.61 424.351 295.168 423.259 295.168 422.175C295.168 421.092 295.619 420.009 296.513 419.178C297.416 418.348 298.59 417.932 299.754 417.932C300.928 417.932 302.101 418.348 302.995 419.178C303.889 420.009 304.34 421.092 304.34 422.175C304.34 423.259 303.889 424.342 302.995 425.173C302.101 426.003 300.928 426.419 299.754 426.419Z" fill="black"/>
<path fill-rule="evenodd" clip-rule="evenodd" d="M297.188 424.55C298.605 425.859 300.899 425.859 302.316 424.55C303.733 423.241 303.733 421.128 302.316 419.819C300.899 418.51 298.605 418.51 297.188 419.819C295.771 421.119 295.771 423.241 297.188 424.55Z" fill="#CBCBCB"/>
<path fill-rule="evenodd" clip-rule="evenodd" d="M297.575 424.297C298.351 425.011 299.606 425.011 300.383 424.297C301.159 423.584 301.159 422.419 300.383 421.706C299.606 420.993 298.351 420.993 297.575 421.706C296.799 422.419 296.808 423.584 297.575 424.297Z" fill="white"/>
<path fill-rule="evenodd" clip-rule="evenodd" d="M297.796 420.677C298.112 420.966 298.626 420.966 298.942 420.677C299.258 420.388 299.258 419.909 298.942 419.62C298.626 419.331 298.112 419.331 297.796 419.62C297.48 419.909 297.48 420.379 297.796 420.677Z" fill="white"/>
<path fill-rule="evenodd" clip-rule="evenodd" d="M289.353 456.147C290.436 457.149 291.853 457.646 293.28 457.646C294.697 457.646 296.124 457.14 297.207 456.147C298.29 455.145 298.832 453.836 298.832 452.518C298.832 451.2 298.29 449.891 297.216 448.898C296.133 447.896 294.706 447.399 293.289 447.399C291.863 447.399 290.445 447.905 289.362 448.898C288.278 449.9 287.737 451.209 287.737 452.527C287.728 453.836 288.269 455.154 289.353 456.147ZM293.28 460.038C291.203 460.038 289.118 459.298 287.529 457.835C285.94 456.364 285.137 454.441 285.137 452.518C285.137 450.595 285.931 448.672 287.52 447.2C289.118 445.738 291.194 444.998 293.28 444.998C295.356 444.998 297.442 445.729 299.031 447.2C300.62 448.672 301.423 450.595 301.423 452.518C301.423 454.441 300.629 456.364 299.04 457.835C297.442 459.307 295.356 460.038 293.28 460.038Z" fill="black"/>
<path fill-rule="evenodd" clip-rule="evenodd" d="M288.434 456.996C291.106 459.46 295.44 459.46 298.112 456.996C300.784 454.531 300.784 450.523 298.112 448.058C295.44 445.594 291.106 445.594 288.434 448.058C285.762 450.523 285.762 454.522 288.434 456.996Z" fill="#CBCBCB"/>
<path fill-rule="evenodd" clip-rule="evenodd" d="M289.171 456.527C290.634 457.881 293.008 457.881 294.471 456.527C295.933 455.172 295.933 452.988 294.471 451.634C293.008 450.279 290.634 450.279 289.171 451.634C287.709 452.988 287.709 455.172 289.171 456.527Z" fill="white"/>
<path fill-rule="evenodd" clip-rule="evenodd" d="M289.572 449.683C290.168 450.234 291.143 450.234 291.739 449.683C292.334 449.133 292.334 448.239 291.739 447.679C291.143 447.128 290.168 447.128 289.572 447.679C288.976 448.23 288.976 449.124 289.572 449.683Z" fill="white"/>
</g>
<defs>
<clipPath id="clip0">
<rect width="311.464" height="470.355" fill="white" transform="translate(0 0.805542)"/>
</clipPath>
</defs>
</svg>
